<svg width="124" height="102" viewBox="0 0 124 102" fill="none" xmlns="http://www.w3.org/2000/svg">
<path d="M2 2H15.6523C17.8311 2 19.7535 3.42651 20.3871 5.51343L41.7596 75.9005C42.3932 77.9874 44.3156 79.4139 46.4942 79.4139H94.6487C96.9129 79.4139 98.8889 77.8753 99.4455 75.6779L108.068 41.6561C108.624 39.4586 110.6 37.9201 112.865 37.9201H121.386" fill="white"/>
<path d="M2 2H15.6523C17.8311 2 19.7535 3.42651 20.3871 5.51343L41.7596 75.9005C42.3932 77.9874 44.3156 79.4139 46.4942 79.4139H94.6487C96.9129 79.4139 98.8889 77.8753 99.4455 75.6779L108.068 41.6561C108.624 39.4586 110.6 37.9201 112.865 37.9201H121.386" stroke="black" stroke-width="3.75648" stroke-linecap="round"/>
<path d="M68.9256 27.3351V23.4951L58.5129 33.92C57.9833 34.4504 57.9833 35.3105 58.5129 35.8408L68.9256 27.3351ZM68.9256 27.3351L60.4299 35.8408C59.9005 36.3708 59.0423 36.3709 58.5129 35.8409L68.9256 27.3351ZM82.1328 35.8408L73.6371 27.3353V23.4951L84.0496 33.9201L84.4034 33.5667L84.0496 33.9201C84.5793 34.4504 84.5793 35.3105 84.0496 35.8408C83.5202 36.3709 82.6622 36.3709 82.1328 35.8408ZM69.9256 57.2381V27.749L71.2813 26.3917L72.6371 27.7491V57.2381H69.9256ZM72.6371 23.5566V26.3341L71.635 25.3309L71.2813 24.9767L70.9275 25.3309L69.9256 26.334V23.5566H72.6371ZM72.6997 22.5566H69.863L70.3229 22.0962C70.3229 22.0962 70.3229 22.0961 70.3229 22.0961C70.8523 21.5663 71.7103 21.5663 72.2397 22.0961C72.2398 22.0961 72.2398 22.0962 72.2398 22.0962L72.6997 22.5566Z" fill="black" stroke="black"/>
<path d="M58.2909 99.8512C61.3656 99.8512 63.8581 97.3557 63.8581 94.2774C63.8581 91.1991 61.3656 88.7036 58.2909 88.7036C55.2162 88.7036 52.7236 91.1991 52.7236 94.2774C52.7236 97.3557 55.2162 99.8512 58.2909 99.8512Z" fill="black" stroke="black" stroke-width="3.00518"/>
<path d="M85.5086 99.8512C88.5833 99.8512 91.0759 97.3557 91.0759 94.2774C91.0759 91.1991 88.5833 88.7036 85.5086 88.7036C82.4339 88.7036 79.9414 91.1991 79.9414 94.2774C79.9414 97.3557 82.4339 99.8512 85.5086 99.8512Z" fill="black" stroke="black" stroke-width="3.00518"/>
</svg>
