<?xml version="1.0" standalone="no"?>
<!DOCTYPE svg PUBLIC "-//W3C//DTD SVG 20010904//EN"
 "http://www.w3.org/TR/2001/REC-SVG-20010904/DTD/svg10.dtd">
<svg version="1.0" xmlns="http://www.w3.org/2000/svg"
 width="265.288810pt" height="410.581897pt" viewBox="0 0 265.288810 410.581897"
 preserveAspectRatio="xMidYMid meet">
<metadata>
Created by potrace 1.16, written by Peter Selinger 2001-2019
</metadata>
<g transform="translate(-173.030451,510.376409) scale(0.100000,-0.100000)"
fill="#000000" stroke="none">
<path d="M3452 5048 c-20 -118 -22 -145 -12 -221 32 -252 194 -429 551 -605
158 -77 224 -134 274 -235 34 -69 84 -242 86 -296 1 -19 5 -12 16 24 9 32 15
99 16 185 2 153 -12 222 -66 330 -38 77 -141 185 -207 217 -371 178 -357 171
-439 251 -90 89 -138 176 -173 312 -12 47 -25 89 -28 93 -4 5 -12 -20 -18 -55z"/>
<path d="M3562 4371 c11 -191 120 -311 355 -392 61 -21 129 -58 181 -98 40
-31 119 -132 141 -181 l16 -35 3 35 c8 79 -34 207 -95 288 -48 64 -137 119
-246 153 -56 17 -124 43 -150 57 -71 38 -151 130 -178 202 -12 33 -24 60 -27
60 -3 0 -2 -40 0 -89z"/>
<path d="M4072 3585 c-22 -18 -31 -36 -34 -69 -9 -78 -71 -136 -145 -136 -23
0 -56 -27 -173 -145 l-145 -145 125 -125 125 -125 141 141 c135 134 142 144
148 189 10 78 56 120 143 135 28 4 50 15 63 32 37 47 28 67 -81 174 -55 54
-109 99 -119 99 -10 0 -32 -11 -48 -25z m-121 -364 c43 -44 39 -72 -23 -135
-84 -85 -116 -92 -158 -39 -32 41 -26 68 33 130 76 81 103 89 148 44z"/>
<path d="M3482 3027 c-12 -13 -22 -27 -22 -32 0 -5 61 -69 137 -142 l136 -134
22 23 c12 13 23 27 25 32 3 9 -258 276 -270 276 -4 0 -16 -10 -28 -23z"/>
<path d="M2617 2212 c-422 -422 -767 -772 -767 -777 0 -6 72 -82 159 -169
l159 -159 771 771 c424 424 771 774 771 777 0 5 -318 325 -323 325 -1 0 -347
-345 -770 -768z m841 505 c60 -61 62 -64 44 -80 -17 -16 -22 -13 -85 51 -53
53 -65 70 -55 80 20 20 31 14 96 -51z m-148 -82 c47 -24 70 -62 70 -116 0
-117 -142 -171 -219 -83 -92 104 26 262 149 199z m-1223 -1197 l23 -21 25 23
c20 19 27 21 40 10 21 -17 19 -36 -7 -54 l-22 -16 24 -25 c22 -24 23 -27 7
-42 -15 -16 -18 -15 -40 5 l-23 22 -22 -20 c-25 -24 -35 -25 -52 -5 -11 13 -9
20 10 40 l23 25 -23 25 c-19 20 -21 27 -10 40 16 20 19 19 47 -7z"/>
<path d="M3214 2610 c-54 -21 -72 -105 -34 -153 27 -34 78 -44 118 -23 37 19
52 44 52 86 0 42 -15 67 -50 85 -32 17 -54 18 -86 5z m74 -46 c32 -22 27 -73
-9 -93 -24 -13 -29 -13 -53 2 -34 22 -36 69 -4 91 28 20 38 20 66 0z"/>
<path d="M1767 1362 l-37 -38 164 -163 163 -163 38 37 37 38 -163 163 c-90 90
-164 164 -164 164 -1 0 -18 -17 -38 -38z"/>
</g>
</svg>
